<svg width="200" height="200" viewBox="0 0 200 200" fill="none" xmlns="http://www.w3.org/2000/svg">
<g id="Frame 1" clip-path="url(#clip0_3_3)">
<path id="Polygon 1" d="M58.6969 17.6673C59.8966 13.9869 65.1034 13.9869 66.3031 17.6673L127.043 204.01C127.886 206.596 125.959 209.25 123.24 209.25H1.76002C-0.959028 209.25 -2.8857 206.596 -2.04304 204.01L58.6969 17.6673Z" fill="#D53A3A"/>
<path id="Polygon 3" d="M106.006 140.216C107.832 136.471 113.168 136.471 114.994 140.216L144.665 201.058C146.285 204.38 143.866 208.25 140.171 208.25H80.8291C77.1338 208.25 74.7153 204.38 76.335 201.058L106.006 140.216Z" fill="#D53A3A"/>
<path id="Polygon 4" d="M81.7894 36.237C83.3664 31.8055 89.6336 31.8055 91.2106 36.237L146.045 190.324C147.203 193.579 144.79 197 141.334 197H31.6657C28.2104 197 25.7966 193.579 26.9551 190.324L81.7894 36.237Z" fill="#D53A3A"/>
<path id="Polygon 6" d="M148.857 92.6202C150.532 88.4272 156.468 88.4272 158.143 92.6202L249.055 320.145C250.367 323.429 247.948 327 244.412 327H62.5883C59.0518 327 56.633 323.429 57.9452 320.145L148.857 92.6202Z" fill="#D53A3A"/>
</g>
<defs>
<clipPath id="clip0_3_3">
<rect width="200" height="200" fill="white"/>
</clipPath>
</defs>
</svg>
